# xmcd
#
# Track frame offsets:
# 150
# 17982
# 33520
# 51127
# 64912
# 83325
# 101695
# 116085
# 129162
# 143572
# 160430
# 177217
# 192337
# 207575
# 236386
#
# Disc length: 4383 seconds
#
#
# Revision: 4
# Processed by: cddbd v1.5.2PL0 Copyright (c) Steve Scherf et al.
# Submitted via: FreeRIP 2.941 
#
DISCID=cb111d0f
DTITLE=Collin Raye - Collin Raye - 1997 - The Best Of Collin Raye (Direct Hits)
DYEAR=1997
DGENRE=Country
TTITLE0=Collin Raye - Little Rock
TTITLE1=Collin Raye - I Think About You
TTITLE2=Collin Raye - Not That Different
TTITLE3=Collin Raye - That's My Story
TTITLE4=Collin Raye - If I Were You
TTITLE5=Collin Raye - One Boy, One Girl
TTITLE6=Collin Raye - In This Life
TTITLE7=Collin Raye - My Kind Of Girl
TTITLE8=Collin Raye - That Was A River
TTITLE9=Collin Raye - What The Heart Wants
TTITLE10=Collin Raye - The Gift
TTITLE11=Collin Raye - Open Arms
TTITLE12=Collin Raye - Little Red Rodeo
TTITLE13=Love, Me
TTITLE14=DATA
EXTD=YEAR: 2001  ID3G:   2
EXTT0=
EXTT1=
EXTT2=
EXTT3=
EXTT4=
EXTT5=
EXTT6=
EXTT7=
EXTT8=
EXTT9=
EXTT10=
EXTT11=
EXTT12=
EXTT13=
EXTT14=
PLAYORDER=
